<?xml version="1.0" standalone="no"?>
<!DOCTYPE svg PUBLIC "-//W3C//DTD SVG 1.1//EN" "http://www.w3.org/Graphics/SVG/1.1/DTD/svg11.dtd" >
<svg xmlns="http://www.w3.org/2000/svg">
  <metadata>Created by iconfont</metadata>
  <defs>
  <font id="iconfont" horiz-adv-x="1024">
    <font-face
      font-family="iconfont"
      font-weight="400"
      font-stretch="normal"
      units-per-em="1024"
      ascent="896"
      descent="-128"
    />
      <missing-glyph />
      
      <glyph glyph-name="daochu" unicode="&#58899;" d="M946.4 591c-34.1 0-61.7-28-61.7-62.6v-375.8c0-34.5-27.6-62.6-61.7-62.6H206.2c-34 0-61.7 28.1-61.7 62.6V528.4c0 34.6-27.6 62.6-61.7 62.6s-61.7-28-61.7-62.6v-375.8c0-103.6 83-187.9 185.1-187.9h616.9c102 0 185.1 84.3 185.1 187.9V528.4c-0.1 34.6-27.7 62.6-61.8 62.6zM298.7 591h61.7c17 0 30.8-14.1 30.8-31.3v-125.3c0-17.3 13.9-31.3 30.8-31.3h185c17 0 30.9 14.1 30.9 31.3V559.7c0 17.2 13.9 31.3 30.8 31.3h61.7c17 0 21 10 9 22.1l-203 206.3c-12 12.2-31.6 12.2-43.6 0L289.7 613.1c-12-12.1-7.9-22.1 9-22.1zM422.1 340.4c-17.1 0-30.8-13.9-30.8-31.3 0-17.2 13.8-31.3 30.8-31.3h185.1c17.1 0 30.8 14.1 30.8 31.3 0 17.4-13.8 31.3-30.8 31.3H422.1z"  horiz-adv-x="1024" />
      
      <glyph glyph-name="daochu1" unicode="&#58964;" d="M395.9 490H288.5c-2.8 0-5.7 0.7-8.1 2.4-18.4 13.1-18.2 34.3-6.4 46.3l217.6 220.9c11.1 11.2 29.2 11.4 40.4 0.3l0.3-0.3 217.7-221c11.1-11.3 10.9-29.4-0.4-40.4-5.3-5.2-12.5-8.2-19.9-8.2H628.1v-215.7c0-7.9-6.4-14.3-14.3-14.3H410.2c-7.9 0-14.3 6.4-14.3 14.3V490zM283.3 243.6v-87.5c0-7.9 6.4-14.3 14.3-14.3h428.8c7.9 0 14.3 6.4 14.3 14.3v87.5c0 7.9 6.4 14.3 14.3 14.3h142.9c7.9 0 14.3-6.4 14.3-14.3V-18c0-7.9-6.4-14.3-14.3-14.3H126.1c-7.9 0-14.3 6.4-14.3 14.3V243.6c0 7.9 6.4 14.3 14.3 14.3H269c7.9 0 14.3-6.4 14.3-14.3z"  horiz-adv-x="1024" />
      
      <glyph glyph-name="close" unicode="&#58923;" d="M510.957251 460.02974 1021.893013 812 669.922752 301.064238 1021.893013-209.8705 510.957251 142.098737 0.021489-209.8705 351.99175 301.064238 0.021489 812Z"  horiz-adv-x="1024" />
      
      <glyph glyph-name="font" unicode="&#58912;" d="M840.041268 569.791473l-38.23072-5.392824c-11.082406 53.866838-20.333094 80.820724-33.871435 98.779747-18.470677 26.329668-34.516118 34.853809-122.633015 34.853809l-91.596138 0 0-555.051515c0-89.211834 8.994861-99.015108 122.397654-105.001449l0-35.32453-326.270948 0 0 35.32453c109.104907 5.986341 122.070196 14.602579 122.070196 105.001449l0 555.051515-86.039585 0c-88.168062 0-112.215758-8.524141-126.992299-33.656541-12.903891-19.156292-22.185278-50.2955-35.733852-99.977016l-37.565571 0c4.297886 66.453505 11.082406 131.177622 13.538341 194.029088l25.285896 0c17.242709-25.1324 32.019251-19.821441 64.089667-19.821441l457.878358 0c30.821983 0 37.565571-1.115404 54.849212 19.821441l27.117614 0C828.334645 705.144184 833.891198 632.039189 840.041268 569.791473z"  horiz-adv-x="1024" />
      
      <glyph glyph-name="templatedefault" unicode="&#59210;" d="M468.310626-78.048781 159.97786-78.048781C111.196085-78.048781 71.284553-36.770882 71.284553 14.514131L71.284553 871.02439 46.308943 846.048781 781.65338 846.048781C830.474699 846.048781 870.504064 804.596502 870.504064 753.256711L870.504064 405.866675C870.504064 392.073028 881.686027 380.891066 895.479676 380.891066 909.273323 380.891066 920.455285 392.073028 920.455285 405.866675L920.455285 753.256711C920.455285 831.800933 858.459947 896 781.65338 896L46.308943 896 21.333333 896 21.333333 871.02439 21.333333 14.514131C21.333333-63.988932 83.22553-128 159.97786-128L468.310626-128C482.104273-128 493.286236-116.818039 493.286236-103.02439 493.286236-89.230741 482.104273-78.048781 468.310626-78.048781L468.310626-78.048781ZM197.162104 521.365854 768.260691 521.365854C782.05434 521.365854 793.236301 532.547814 793.236301 546.341463 793.236301 560.135113 782.05434 571.317073 768.260691 571.317073L197.162104 571.317073C183.368455 571.317073 172.186494 560.135113 172.186494 546.341463 172.186494 532.547814 183.368455 521.365854 197.162104 521.365854L197.162104 521.365854ZM199.955658 671.219511 771.054246 671.219511C784.847893 671.219511 796.029856 682.401474 796.029856 696.195122 796.029856 709.98877 784.847893 721.170732 771.054246 721.170732L199.955658 721.170732C186.16201 721.170732 174.980048 709.98877 174.980048 696.195122 174.980048 682.401474 186.16201 671.219511 199.955658 671.219511L199.955658 671.219511ZM770.601626-128C908.53811-128 1020.357724-16.180386 1020.357724 121.756098 1020.357724 259.692582 908.53811 371.512194 770.601626 371.512194 632.665141 371.512194 520.845527 259.692582 520.845527 121.756098 520.845527-16.180386 632.665141-128 770.601626-128L770.601626-128ZM770.601626-78.048781C660.252439-78.048781 570.796749 11.40691 570.796749 121.756098 570.796749 232.105284 660.252439 321.560975 770.601626 321.560975 880.950814 321.560975 970.406505 232.105284 970.406505 121.756098 970.406505 11.40691 880.950814-78.048781 770.601626-78.048781L770.601626-78.048781ZM628.063155 104.095674 698.708245 33.450583C718.235857 13.922972 749.784966 13.89241 769.3688 33.476243L914.030005 178.137449C923.783586 187.891031 923.783586 203.704713 914.030005 213.458295 904.276422 223.211876 888.462741 223.211876 878.709158 213.458295L734.047953 68.79709C733.98662 68.735757 734.064841 68.73568 734.029092 68.771428L663.384 139.416521C653.630417 149.170103 637.816736 149.170103 628.063155 139.416521 618.309572 129.662938 618.309572 113.849257 628.063155 104.095674L628.063155 104.095674Z"  horiz-adv-x="1024" />
      
      <glyph glyph-name="yangshengqispeaker76" unicode="&#58935;" d="M816.356621 594.752076l187.89636 187.89636c25.956421 25.956421 25.956421 68.023725 0 93.916214-25.956421 25.956421-68.023725 25.956421-93.916214 0l-187.89636-187.89636c-25.956421-25.956421-25.956421-68.023725 0-93.916214C748.396828 568.795655 790.464132 568.795655 816.356621 594.752076zM447.788225 844.151089 255.992008 646.920647l0-7.160392L128.127864 639.760255c-70.64494 0-127.864144-57.219205-127.864144-127.864144l0-255.728289c0-70.64494 57.219205-127.864144 127.864144-127.864144l127.864144 0 0-7.160392 191.796217-197.166511c0 0 127.864144-152.030468 127.864144 65.72217L575.652369 778.364987C575.652369 996.117625 447.788225 844.151089 447.788225 844.151089zM447.788225 192.23575c0-103.889617-63.932072 0-63.932072 0l-63.932072 63.932072L192.059936 256.167822c-35.290504 0-63.932072 28.641568-63.932072 63.932072l0 127.864144c0 35.290504 28.641568 63.932072 63.932072 63.932072l127.864144 0 63.932072 63.932072c0.127864 4.283449 63.54848 120.575888 62.973091 22.120497C446.637448 556.328901 446.893176 496.616345 447.212836 450.649185 447.276768 449.690204 447.788225 448.923019 447.788225 447.964038L447.788225 192.23575zM816.356621 173.311856c-25.956421 25.956421-68.023725 25.956421-93.916214 0-25.956421-25.956421-25.956421-68.023725 0-93.916214l187.89636-187.89636c25.956421-25.956421 68.023725-25.956421 93.916214 0 25.956421 25.956421 25.956421 68.023725 0 93.916214L816.356621 173.311856zM767.448586 447.964038c-35.290504 0-63.932072-28.641568-63.932072-63.932072 0-35.290504 28.641568-63.932072 63.932072-63.932072l191.796217 0c35.290504 0 63.932072 28.641568 63.932072 63.932072 0 35.290504-28.641568 63.932072-63.932072 63.932072L767.448586 447.964038z"  horiz-adv-x="1024" />
      
      <glyph glyph-name="img" unicode="&#59033;" d="M831.5 32h-639.5c-53 0-96 43.1-96 96v639.9c0 53 43.1 96 96 96h640c53 0 96-43.1 96-96l-0.1-639.5c0-53.2-43.2-96.4-96.4-96.4zM192 800c-17.7 0-32-14.4-32-32v-640c0-17.7 14.4-32 32-32h639.5c17.9 0 32.4 14.5 32.4 32.4l0.1 639.5c0 17.7-14.4 32-32 32h-640zM128 224c-8.2 0-16.4 3.1-22.6 9.4-12.5 12.5-12.5 32.8 0 45.3l159.4 159.3c29.2 29.2 73.7 36.5 110.7 18l173.6-86.8c12.3-6.2 27.1-3.8 36.8 6l287.4 287.4c12.5 12.5 32.8 12.5 45.3 0s12.5-32.8 0-45.3l-287.4-287.4c-29.2-29.2-73.7-36.5-110.7-18l-173.6 86.8c-12.3 6.2-27.1 3.8-36.8-6l-159.5-159.3c-6.2-6.3-14.4-9.4-22.6-9.4zM384 544c-52.9 0-96 43.1-96 96s43.1 96 96 96 96-43.1 96-96-43.1-96-96-96zM384 672c-17.6 0-32-14.4-32-32s14.4-32 32-32 32 14.4 32 32-14.4 32-32 32z"  horiz-adv-x="1024" />
      
      <glyph glyph-name="close1" unicode="&#58948;" d="M925.468404 73.705931 622.19831 383.99386l303.311027 310.331931c34.682917 27.842115 38.299281 75.80243 8.121981 107.216907-30.135344 31.369452-82.733283 34.259268-117.408013 6.463202L512.000512 496.74276 207.776695 808.006923c-34.675754 27.796066-87.272669 24.90625-117.408013-6.463202-30.178323-31.414477-26.560936-79.375815 8.121981-107.216907l303.311027-310.331931L98.531596 73.705931c-34.724873-27.820626-38.341237-75.846432-8.117888-107.195418 30.135344-31.43699 82.72919-34.326806 117.408013-6.485715l304.178791 311.219137 304.177767-311.219137c34.678824-27.841092 87.271646-24.951275 117.408013 6.485715C963.808618-2.140501 960.146205 45.886329 925.468404 73.705931z"  horiz-adv-x="1024" />
      
      <glyph glyph-name="-Ruler" unicode="&#58946;" d="M0 640v-512h1024V640H0z m64-64h96v-224h64v224h64v-128h64v128h64v-224h64v224h64v-128h64v128h64v-224h64v224h64v-128h64v128h96v-384H64V576z"  horiz-adv-x="1024" />
      
      <glyph glyph-name="pdf1" unicode="&#59225;" d="M743.483311 896H109.01234A53.988777 53.988777 0 0 1 55.023562 842.011223v-916.009591a53.988777 53.988777 0 0 1 53.988778-53.988778h805.97532a53.988777 53.988777 0 0 1 53.988778 53.988778V684.916735z m-10.913446-102.462987l149.201843-139.702389H732.569865zM137.292176-45.718532V813.731387h513.009076v-242.165376h236.419427V-45.718532zM298.60293 458.13816h-83.258408v-237.332094h57.09956v78.785051h27.752802c50.132436 0 93.837637 24.886256 93.837637 81.343092-0.051418 58.693514-43.113895 77.203952-95.431591 77.203951z m-1.285447-113.569249h-24.873401v68.591456h23.292301c27.431441 0 42.741115-8.303988 42.741115-32.226158 0-23.279447-13.394359-36.365298-41.147161-36.365298zM502.757635 458.13816H434.487541v-237.332094h71.458003c69.221325 0 117.065666 37.277965 117.065666 119.932212s-47.84434 117.399882-120.253575 117.399882z m-3.50927-191.40307h-7.712683V412.839005h7.712683c38.280614 0 65.390693-15.631037 65.390693-72.100727s-27.110079-74.003189-65.390693-74.003188zM667.024918 220.806066h57.099559v90.585456h81.02173v47.535833h-81.02173v51.996334h94.428943v47.201617H667.024918v-237.31924z"  horiz-adv-x="1024" />
      
      <glyph glyph-name="template_fill" unicode="&#59079;" d="M800 800H224c-70.4 0-128-57.6-128-128v-576c0-70.4 57.6-128 128-128h576c70.4 0 128 57.6 128 128V672c0 70.4-57.6 128-128 128zM320 160c0-17.6-14.4-32-32-32s-32 14.4-32 32V480c0 17.6 14.4 32 32 32s32-14.4 32-32v-320z m448 64c0-17.6-14.4-32-32-32H448c-17.6 0-32 14.4-32 32s14.4 32 32 32h288c17.6 0 32-14.4 32-32z m0 192c0-17.6-14.4-32-32-32H448c-17.6 0-32 14.4-32 32s14.4 32 32 32h288c17.6 0 32-14.4 32-32z m0 192c0-17.6-14.4-32-32-32H288c-17.6 0-32 14.4-32 32s14.4 32 32 32h448c17.6 0 32-14.4 32-32z"  horiz-adv-x="1024" />
      
      <glyph glyph-name="markdown-fill" unicode="&#59061;" d="M128 768h768a42.666667 42.666667 0 0 0 42.666667-42.666667v-682.666666a42.666667 42.666667 0 0 0-42.666667-42.666667H128a42.666667 42.666667 0 0 0-42.666667 42.666667V725.333333a42.666667 42.666667 0 0 0 42.666667 42.666667z m170.666667-533.333333v170.666666l85.333333-85.333333 85.333333 85.333333v-170.666666h85.333334v298.666666h-85.333334l-85.333333-85.333333-85.333333 85.333333H213.333333v-298.666666h85.333334z m469.333333 128v170.666666h-85.333333v-170.666666h-85.333334l128-128 128 128h-85.333333z"  horiz-adv-x="1024" />
      
      <glyph glyph-name="markdown-line" unicode="&#59062;" d="M128 768h768a42.666667 42.666667 0 0 0 42.666667-42.666667v-682.666666a42.666667 42.666667 0 0 0-42.666667-42.666667H128a42.666667 42.666667 0 0 0-42.666667 42.666667V725.333333a42.666667 42.666667 0 0 0 42.666667 42.666667z m42.666667-85.333333v-597.333334h682.666666V682.666667H170.666667z m128-448H213.333333v298.666666h85.333334l85.333333-85.333333 85.333333 85.333333h85.333334v-298.666666h-85.333334v170.666666l-85.333333-85.333333-85.333333 85.333333v-170.666666z m469.333333 128h85.333333l-128-128-128 128h85.333334v170.666666h85.333333v-170.666666z"  horiz-adv-x="1024" />
      
      <glyph glyph-name="eye" unicode="&#58880;" d="M1145.04 413.2C1036.58 624.82 821.86 768 576 768S115.36 624.72 6.96 413.18a64.7 64.7 0 0 1 0-58.38C115.42 143.18 330.14 0 576 0s460.64 143.28 569.04 354.82a64.7 64.7 0 0 1 0 58.38zM576 96a288 288 0 1 0 288 288 287.86 287.86 0 0 0-288-288z m0 480a190.62 190.62 0 0 1-50.62-7.58 95.7 95.7 0 0 0-133.8-133.8A191.56 191.56 0 1 1 576 576z"  horiz-adv-x="1152" />
      
      <glyph glyph-name="ruler" unicode="&#58881;" d="M1271.5132 561.6L1112.3132 832.6c-17.6 30-56.6 40.2-87 23l-138-78.2L1006.7132 574c4.4-7.6 1.8-17-5.8-21.4l-27.6-15.6c-7.6-4.4-17.4-1.8-21.8 5.8L832.1132 746l-110.4-62.6 55.8-94.8c4.4-7.6 1.8-17-5.8-21.4l-27.6-15.6c-7.6-4.4-17.4-1.8-21.8 5.8L666.5132 652 556.1132 589.4 675.7132 386c4.4-7.4 1.8-17-5.8-21.4l-27.6-15.6c-7.6-4.4-17.4-1.8-21.8 5.8l-119.4 203.4-110.4-62.6 55.8-94.8c4.4-7.6 1.8-17-5.8-21.4l-27.6-15.6c-7.6-4.4-17.4-1.8-21.8 5.8l-55.8 95-110.4-62.6 119.4-203.4c4.4-7.4 1.8-17-5.8-21.4l-27.6-15.6c-7.6-4.4-17.4-1.8-21.8 5.8L169.9132 370.2l-138-78.2C1.5132 274.6-9.0868 236.4 8.5132 206.4l159.2-271.2c17.6-30 56.6-40.2 87-23L1248.3132 476c30.4 17.2 40.8 55.6 23.2 85.6z"  horiz-adv-x="1280" />
      
      <glyph glyph-name="default-template-fill" unicode="&#59260;" d="M277.333333 597.333333v-490.666666h437.333334v-64h-405.333334a96 96 0 0 0-95.893333 91.477333L213.333333 138.666667V597.333333h64z m472.789334 127.786667a64 64 0 0 0 64-64v-451.242667a64 64 0 0 0-64-64H319.786667V661.12a64 64 0 0 0 64 64h366.336zM491.946667 454.421333l-45.226667-45.269333 88.341333-88.298667 170.112 168.405334-45.013333 45.482666-124.885333-123.626666z"  horiz-adv-x="1024" />
      
      <glyph glyph-name="speaker_on" unicode="&#59006;" d="M767.317333 128.981333a33.237333 33.237333 0 0 0-20.565333-6.656 34.56 34.56 0 0 0-25.386667 10.709334 34.986667 34.986667 0 0 0-10.666666 25.557333 35.2 35.2 0 0 0 13.994666 28.501333 5.76 5.76 0 0 1 1.450667 1.109334l0.725333 0.725333c13.738667 9.386667 26.453333 20.48 38.272 33.28 11.733333 12.842667 22.058667 26.794667 30.848 41.813333 8.832 15.061333 15.701333 31.146667 20.608 48.128a190.293333 190.293333 0 0 1 7.338667 52.906667c0 37.034667-9.301333 70.826667-27.946667 101.418667a250.794667 250.794667 0 0 1-69.845333 75.52 34.730667 34.730667 0 0 0-15.445333 29.568 34.986667 34.986667 0 0 0 10.666666 25.557333 34.56 34.56 0 0 0 25.386667 10.709333c8.32 0 15.658667-2.688 22.058667-8.106666 18.133333-12.842667 35.029333-27.776 50.730666-44.8 15.658667-17.066667 29.141333-35.541333 40.448-55.509334 11.264-19.968 20.053333-41.344 26.453334-64 6.4-22.698667 9.557333-46.165333 9.557333-70.314666 0-24.704-3.2-48.384-9.557333-71.082667a285.653333 285.653333 0 0 0-26.837334-64.384 305.450667 305.450667 0 0 0-92.288-100.693333v0.042666z m-41.173333 332.330667c10.282667-14.336 18.517333-28.757333 24.661333-43.306667 6.101333-14.549333 9.173333-32.213333 9.173334-52.906666 0-19.754667-3.2-37.546667-9.557334-53.333334-6.4-15.786667-14.464-30.08-24.277333-42.88-3.925333-5.461333-8.106667-10.24-12.501333-14.464a23.552 23.552 0 0 0-16.896-6.272 29.866667 29.866667 0 0 0-22.442667 9.6 32.085333 32.085333 0 0 0-9.173333 22.954667 33.706667 33.706667 0 0 0 2.218666 11.861333h-0.768c2.474667 5.418667 5.418667 10.581333 8.832 15.530667 3.413333 4.949333 6.741333 9.984 9.941334 15.146667a84.48 84.48 0 0 1 8.106666 17.792c2.176 6.656 3.285333 14.677333 3.285334 24.064 0 8.874667-1.109333 16.64-3.328 23.296a94.208 94.208 0 0 1-8.106667 18.133333 240.170667 240.170667 0 0 1-9.898667 15.530667 67.072 67.072 0 0 0-8.106666 15.573333 29.994667 29.994667 0 0 0-2.176 11.818667c0 8.874667 3.072 16.512 9.173333 22.954666a29.866667 29.866667 0 0 0 22.442667 9.6c6.826667 0 12.501333-2.090667 16.896-6.272 4.437333-4.181333 8.576-9.002667 12.501333-14.421333z m-237.482667-439.637333a9078.869333 9078.869333 0 0 1-157.354666 139.136 10554.453333 10554.453333 0 0 1-83.797334 70.314666 177.408 177.408 0 0 0-16.213333-0.725333 125.781333 125.781333 0 0 0-13.952-0.768h-12.501333c-13.226667 0-24.021333 4.096-32.341334 12.202667a39.424 39.424 0 0 0-12.501333 29.269333v186.453333h0.725333l-0.725333 0.768c0 13.824 4.266667 25.173333 12.885333 34.048a42.666667 42.666667 0 0 0 32 13.312h41.856a13012.906667 13012.906667 0 0 0 122.794667 103.637334c15.701333 13.312 31.146667 26.282667 46.336 38.826666 15.189333 12.586667 28.928 24.064 41.173333 34.432 12.245333 10.368 22.570667 18.986667 30.890667 25.898667 8.32 6.912 13.482667 11.093333 15.445333 12.586667 14.677333 10.88 26.581333 15.786667 35.626667 14.805333 9.088-0.981333 16.213333-5.418667 21.333333-13.312s8.704-17.493333 10.666667-28.885333c1.962667-11.349333 2.944-21.674667 2.944-31.061334v-599.466666c0-9.386667-1.706667-19.413333-5.12-29.994667-3.456-10.624-8.746667-19.029333-15.829333-25.173333-7.125333-6.186667-16.042667-8.746667-26.88-7.765334-10.752 0.981333-23.253333 8.106667-37.461334 21.461334z"  horiz-adv-x="1024" />
      
      <glyph glyph-name="shandian" unicode="&#58936;" d="M226.812517-128l555.303105 664.605764h-230.510823L811.220779 896H420.010983L212.779221 341.102189h201.000371L226.812517-128z"  horiz-adv-x="1024" />
      
      <glyph glyph-name="template" unicode="&#59053;" d="M810.666667 512H213.333333c-46.933333 0-85.333333 38.4-85.333333 85.333333V682.666667c0 46.933333 38.4 85.333333 85.333333 85.333333h597.333334c46.933333 0 85.333333-38.4 85.333333-85.333333v-85.333334c0-46.933333-38.4-85.333333-85.333333-85.333333zM213.333333 682.666667v-85.333334h597.333334V682.666667H213.333333zM384 0H213.333333c-46.933333 0-85.333333 38.4-85.333333 85.333333v256c0 46.933333 38.4 85.333333 85.333333 85.333334h170.666667c46.933333 0 85.333333-38.4 85.333333-85.333334v-256c0-46.933333-38.4-85.333333-85.333333-85.333333z m-170.666667 341.333333v-256h170.666667v256H213.333333zM853.333333 341.333333h-256c-25.6 0-42.666667 17.066667-42.666666 42.666667s17.066667 42.666667 42.666666 42.666667h256c25.6 0 42.666667-17.066667 42.666667-42.666667s-17.066667-42.666667-42.666667-42.666667zM853.333333 170.666667h-256c-25.6 0-42.666667 17.066667-42.666666 42.666666s17.066667 42.666667 42.666666 42.666667h256c25.6 0 42.666667-17.066667 42.666667-42.666667s-17.066667-42.666667-42.666667-42.666666zM853.333333 0h-256c-25.6 0-42.666667 17.066667-42.666666 42.666667s17.066667 42.666667 42.666666 42.666666h256c25.6 0 42.666667-17.066667 42.666667-42.666666s-17.066667-42.666667-42.666667-42.666667z"  horiz-adv-x="1024" />
      
      <glyph glyph-name="accessibility" unicode="&#59753;" d="M784.902358 672.081076c-3.791853 0-7.783278 0.199571-11.575131 0.598714-3.791853 0.399142-7.583707 0.798285-11.375561 1.596569-3.791853 0.798285-7.583707 1.59657-11.175989 2.594426-3.791853 0.997856-7.384136 2.394855-10.976418 3.791854-3.592282 1.396999-6.984993 2.993569-10.377704 4.789709-3.392711 1.796141-6.785422 3.592282-9.978561 5.587995-3.19314 1.995712-6.386279 4.190996-9.379848 6.585851-2.993569 2.394855-5.787566 4.78971-8.581563 7.384135-2.793997 2.594426-5.388423 5.388423-7.783279 8.182421-2.394855 2.793997-4.78971 5.787566-6.984993 8.781134-2.195284 2.993569-4.190996 6.186708-5.987137 9.379848s-3.392711 6.585851-4.989281 9.978562c-1.396999 3.392711-2.793997 6.785422-3.991424 10.377704-1.197427 3.592282-1.995712 6.984993-2.793998 10.577275-0.798285 3.592282-1.396999 7.184564-1.796141 10.776847a101.142701 101.142701 0 0 0 0 21.952836c0.399142 3.592282 0.997856 7.184564 1.796141 10.776846 0.798285 3.592282 1.59657 7.184564 2.793998 10.577276 1.197427 3.592282 2.394855 6.984993 3.991424 10.377704 1.396999 3.392711 3.19314 6.785422 4.989281 9.978562 1.796141 3.19314 3.791853 6.386279 5.987137 9.379848s4.390567 5.987137 6.984993 8.781134c2.394855 2.793997 4.989281 5.587995 7.783279 8.18242 2.793997 2.594426 5.587995 4.989281 8.581563 7.384136 2.993569 2.394855 5.987137 4.590138 9.379848 6.585851 3.19314 1.995712 6.585851 3.991425 9.978561 5.587994 3.392711 1.796141 6.984993 3.392711 10.377704 4.78971 3.592282 1.396999 7.184564 2.594426 10.976418 3.791853 3.791853 0.997856 7.384136 1.995712 11.175989 2.594426 3.791853 0.798285 7.583707 1.197427 11.375561 1.59657a112.418476 112.418476 0 0 0 23.150263 0c3.791853-0.399142 7.583707-0.798285 11.37556-1.59657 3.791853-0.798285 7.583707-1.59657 11.175989-2.594426 3.791853-0.997856 7.384136-2.394855 10.976418-3.791853 3.592282-1.396999 6.984993-2.993569 10.377704-4.78971 3.392711-1.796141 6.785422-3.592282 9.978562-5.587994 3.19314-1.995712 6.386279-4.190996 9.379848-6.585851 2.993569-2.394855 5.787566-4.78971 8.581563-7.384136 2.793997-2.594426 5.388423-5.388423 7.783278-8.18242 2.394855-2.793997 4.78971-5.787566 6.984993-8.781134 2.195284-2.993569 4.190996-6.186708 5.987137-9.379848 1.796141-3.19314 3.392711-6.585851 4.989281-9.978562 1.396999-3.392711 2.793997-6.785422 3.991425-10.377704 1.197427-3.592282 1.995712-6.984993 2.793997-10.577276 0.798285-3.592282 1.396999-7.184564 1.796141-10.776846a101.142701 101.142701 0 0 0 0-21.952836c-0.399142-3.592282-0.997856-7.184564-1.796141-10.776847-0.798285-3.592282-1.59657-7.184564-2.793997-10.577275-1.197427-3.592282-2.394855-6.984993-3.991425-10.377704-1.396999-3.392711-3.19314-6.785422-4.989281-9.978562-1.796141-3.19314-3.791853-6.386279-5.987137-9.379848s-4.390567-5.987137-6.984993-8.781134c-2.394855-2.793997-4.989281-5.587995-7.783278-8.182421-2.793997-2.594426-5.587995-4.989281-8.581563-7.384135-2.993569-2.394855-5.987137-4.590138-9.379848-6.585851-3.19314-1.995712-6.585851-3.991425-9.978562-5.587995-3.392711-1.796141-6.984993-3.392711-10.377704-4.789709-3.592282-1.396999-7.184564-2.594426-10.976418-3.791854-3.791853-0.997856-7.384136-1.995712-11.175989-2.594426-3.791853-0.798285-7.583707-1.197427-11.37556-1.596569-3.791853-0.399142-7.783278-0.598714-11.575132-0.598714zM1155.306568 670.484506l-0.997856-0.199571-0.798285-0.199572c-2.195284-0.598714-4.190996-1.197427-6.38628-1.796141-39.115962-10.976418-229.307347-61.867082-363.219645-61.867082-124.53245 0-297.361138 43.905671-352.64237 58.873514-5.587995 1.995712-11.175989 3.791853-16.763983 5.188852-39.914247 9.978562-67.455077-28.538686-67.455077-63.862795 0-34.924966 33.128825-51.489378 66.45722-63.463652v-0.598714l200.369519-59.472227c20.555837-7.384136 25.94426-15.167414 28.538686-21.753265 8.781134-21.154551 1.796141-63.06451-0.798285-77.832781l-12.173845-90.006626-67.854219-352.243228-0.598714-2.993568-0.399142-2.594426c-4.78971-32.33054 20.156695-63.663224 67.455077-63.663224 41.311245 0 59.472228 27.141688 67.455077 63.862795 7.982849 36.721107 58.873514 315.122978 88.410056 315.122978S874.1107-63.937634 874.1107-63.937634c7.982849-36.721107 26.143832-63.862795 67.455077-63.862795 47.497954 0 72.444358 31.532255 67.255505 63.862795-0.399142 2.793997-0.997856 5.388423-1.596569 8.182421l-68.652505 349.249659-12.173845 90.006626c-8.781134 52.487234-1.796141 69.650361 0.598714 73.841356 0 0 0.199571 0.199571 0.199571 0.399143 2.195284 3.991425 12.572988 12.97213 36.721107 21.553693l187.996102 62.465796c1.197427 0.199571 2.195284 0.598714 3.392711 0.997856 33.727538 11.974274 67.455077 28.538686 67.455077 63.862795s-27.341259 73.841356-67.455077 63.862795z"  horiz-adv-x="1572" />
      
      <glyph glyph-name="ladder" unicode="&#59184;" d="M661.333333 768v-85.333333H362.666667V768h-85.333334v-768h85.333334v85.333333h298.666666v-85.333333h85.333334V768z m0-170.666667v-85.333333H362.666667v85.333333z m0-170.666666v-85.333334H362.666667v85.333334zM362.666667 170.666667v85.333333h298.666666v-85.333333z"  horiz-adv-x="1024" />
      
      <glyph glyph-name="shandian1" unicode="&#58932;" d="M226.8125-128l555.3 664.606H551.5995L811.2205 896h-391.21L212.7785 341.1h201z"  horiz-adv-x="1024" />
      
      <glyph glyph-name="pdf" unicode="&#59002;" d="M582.4 32H170.666667c-6.4 0-10.666667 4.266667-10.666667 10.666667V725.333333c0 6.4 4.266667 10.666667 10.666667 10.666667h309.333333V576c0-40.533333 34.133333-74.666667 74.666667-74.666667h160v-38.4c0-17.066667 14.933333-32 32-32s32 14.933333 32 32V597.333333c0 8.533333-4.266667 17.066667-8.533334 23.466667l-170.666666 170.666667c-6.4 6.4-14.933333 8.533333-23.466667 8.533333H170.666667C130.133333 800 96 765.866667 96 725.333333v-682.666666c0-40.533333 34.133333-74.666667 74.666667-74.666667h411.733333c17.066667 0 32 14.933333 32 32s-14.933333 32-32 32z m132.266667 550.4v-17.066667H554.666667c-6.4 0-10.666667 4.266667-10.666667 10.666667V736h19.2l151.466667-153.6zM332.8 362.666667c-12.8 0-19.2-2.133333-25.6-6.4-6.4-4.266667-8.533333-12.8-8.533333-23.466667v-206.933333c0-6.4 2.133333-12.8 6.4-19.2 4.266667-4.266667 10.666667-8.533333 21.333333-8.533334s17.066667 4.266667 21.333333 8.533334c4.266667 4.266667 6.4 10.666667 6.4 19.2v64h32c57.6 0 89.6 29.866667 89.6 87.466666 0 27.733333-8.533333 51.2-23.466666 64-14.933333 14.933333-36.266667 21.333333-66.133334 21.333334h-53.333333z m87.466667-85.333334c0-12.8-2.133333-23.466667-8.533334-27.733333-4.266667-4.266667-14.933333-8.533333-27.733333-8.533333h-32v70.4H384c12.8 0 21.333333-2.133333 27.733333-8.533334 6.4-4.266667 8.533333-12.8 8.533334-25.6zM667.733333 324.266667c-8.533333 12.8-21.333333 21.333333-34.133333 29.866666-14.933333 4.266667-32 8.533333-51.2 8.533334h-61.866667c-8.533333 0-17.066667 0-23.466666-8.533334-2.133333-4.266667-4.266667-10.666667-4.266667-19.2V128c0-8.533333 2.133333-14.933333 4.266667-19.2 6.4-8.533333 14.933333-8.533333 23.466666-8.533333h64c19.2 0 34.133333 4.266667 49.066667 10.666666 12.8 6.4 25.6 17.066667 34.133333 29.866667 8.533333 12.8 14.933333 25.6 19.2 42.666667 4.266667 14.933333 6.4 32 6.4 49.066666 0 17.066667-2.133333 34.133333-6.4 49.066667-4.266667 14.933333-10.666667 29.866667-19.2 42.666667z m-42.666666-153.6c-8.533333-12.8-21.333333-19.2-38.4-19.2h-38.4v160H576c21.333333 0 38.4-6.4 46.933333-19.2 10.666667-12.8 14.933333-34.133333 14.933334-59.733334 2.133333-27.733333-4.266667-46.933333-12.8-61.866666zM851.2 362.666667h-106.666667c-8.533333 0-17.066667-2.133333-21.333333-6.4-6.4-4.266667-8.533333-12.8-8.533333-21.333334v-209.066666c0-6.4 2.133333-12.8 6.4-17.066667 4.266667-6.4 10.666667-8.533333 21.333333-8.533333 8.533333 0 17.066667 2.133333 21.333333 8.533333 2.133333 4.266667 6.4 8.533333 6.4 19.2v85.333333h72.533334c12.8 0 23.466667 6.4 25.6 17.066667 2.133333 8.533333 2.133333 14.933333 0 17.066667-2.133333 4.266667-6.4 17.066667-25.6 17.066666H768v49.066667h81.066667c8.533333 0 14.933333 2.133333 19.2 4.266667 4.266667 2.133333 8.533333 8.533333 8.533333 21.333333 2.133333 12.8-8.533333 23.466667-25.6 23.466667z"  horiz-adv-x="1024" />
      
    </font>
</defs>
</svg>
