<svg t="1662368179910" class="icon" viewBox="0 0 1024 1024" version="1.1" xmlns="http://www.w3.org/2000/svg" p-id="6136"
    width="128" height="128">
    <path
        d="M3.017682 3.008815m120.352595 0l774.268365 0q120.352595 0 120.352595 120.352595l0 780.285995q0 120.352595-120.352595 120.352595l-774.268365 0q-120.352595 0-120.352595-120.352595l0-780.285995q0-120.352595 120.352595-120.352595Z"
        fill="#cccccc" p-id="6137"></path>
    <path
        d="M302.695645 138.405485h72.211557v750.197845h-72.211557zM646.101717 138.405485h72.211557v750.197845h-72.211557z"
        fill="#E6E9EE" p-id="6138"></path>
    <path
        d="M715.493012 290.852106h-409.198825c-22.465818 0-40.117532-17.651714-40.117532-40.117532s17.651714-40.117532 40.117532-40.117532h408.396474c22.465818 0 40.117532 17.651714 40.117532 40.117532 0.802351 22.465818-17.651714 40.117532-39.315181 40.117532zM715.493012 465.764545h-409.198825c-22.465818 0-40.117532-17.651714-40.117532-40.117532s17.651714-40.117532 40.117532-40.117532h408.396474c22.465818 0 40.117532 17.651714 40.117532 40.117532 0.802351 22.465818-17.651714 40.117532-39.315181 40.117532zM715.493012 641.479334h-409.198825c-22.465818 0-40.117532-17.651714-40.117532-40.117532s17.651714-40.117532 40.117532-40.117532h408.396474c22.465818 0 40.117532 17.651714 40.117532 40.117532 0.802351 21.663467-17.651714 40.117532-39.315181 40.117532zM715.493012 816.391773h-409.198825c-22.465818 0-40.117532-17.651714-40.117532-40.117532s17.651714-40.117532 40.117532-40.117532h408.396474c22.465818 0 40.117532 17.651714 40.117532 40.117532 0.802351 21.663467-17.651714 40.117532-39.315181 40.117532z"
        fill="#FFFFFF" p-id="6139"></path>
    <path
        d="M683.812197 250.734574m-15.244662 0a15.244662 15.244662 0 1 0 30.489324 0 15.244662 15.244662 0 1 0-30.489324 0Z"
        fill="#CED5E0" p-id="6140"></path>
    <path
        d="M337.196722 250.734574m-15.244662 0a15.244662 15.244662 0 1 0 30.489324 0 15.244662 15.244662 0 1 0-30.489324 0Z"
        fill="#CED5E0" p-id="6141"></path>
    <path
        d="M683.812197 425.647013m-15.244662 0a15.244662 15.244662 0 1 0 30.489324 0 15.244662 15.244662 0 1 0-30.489324 0Z"
        fill="#CED5E0" p-id="6142"></path>
    <path
        d="M337.196722 425.647013m-15.244662 0a15.244662 15.244662 0 1 0 30.489324 0 15.244662 15.244662 0 1 0-30.489324 0Z"
        fill="#CED5E0" p-id="6143"></path>
    <path
        d="M683.812197 601.361802m-15.244662 0a15.244662 15.244662 0 1 0 30.489324 0 15.244662 15.244662 0 1 0-30.489324 0Z"
        fill="#CED5E0" p-id="6144"></path>
    <path
        d="M337.196722 601.361802m-15.244662 0a15.244662 15.244662 0 1 0 30.489324 0 15.244662 15.244662 0 1 0-30.489324 0Z"
        fill="#CED5E0" p-id="6145"></path>
    <path
        d="M683.812197 776.274241m-15.244662 0a15.244662 15.244662 0 1 0 30.489324 0 15.244662 15.244662 0 1 0-30.489324 0Z"
        fill="#CED5E0" p-id="6146"></path>
    <path
        d="M337.196722 776.274241m-15.244662 0a15.244662 15.244662 0 1 0 30.489324 0 15.244662 15.244662 0 1 0-30.489324 0Z"
        fill="#CED5E0" p-id="6147"></path>
</svg>